<svg xmlns="http://www.w3.org/2000/svg" viewBox="0 0 1200 820" preserveAspectRatio="none"><defs><linearGradient id="paper" x1="0" y1="0" x2="1" y2="1"><stop stop-color="#f3dfb0"/><stop offset=".45" stop-color="#e8c98e"/><stop offset="1" stop-color="#c99a5d"/></linearGradient><linearGradient id="roll" x1="0" y1="0" x2="1" y2="0"><stop stop-color="#75451f"/><stop offset=".16" stop-color="#c88943"/><stop offset=".5" stop-color="#f2cf8c"/><stop offset=".84" stop-color="#9b5d29"/><stop offset="1" stop-color="#5f3519"/></linearGradient><linearGradient id="gold"><stop stop-color="#7a4a12"/><stop offset=".28" stop-color="#f3c85e"/><stop offset=".55" stop-color="#fff0a3"/><stop offset=".82" stop-color="#c68625"/><stop offset="1" stop-color="#6c400e"/></linearGradient><filter id="shadow"><feDropShadow dx="0" dy="12" stdDeviation="12" flood-color="#000" flood-opacity=".55"/></filter><filter id="grain"><feTurbulence type="fractalNoise" baseFrequency=".9" numOctaves="2" seed="8" result="n"/><feColorMatrix in="n" type="saturate" values="0"/><feComponentTransfer><feFuncA type="table" tableValues="0 .11"/></feComponentTransfer></filter></defs><g filter="url(#shadow)"><path d="M88 56H1112c-24 24-17 43 0 60v588c-22 20-22 41 0 60H88c22-19 22-41 0-60V116c21-20 21-40 0-60Z" fill="url(#paper)" stroke="#8d602e" stroke-width="5"/><rect x="101" y="78" width="998" height="664" rx="8" fill="none" stroke="#9c713d" stroke-width="2"/><rect x="112" y="89" width="976" height="642" rx="5" fill="none" stroke="#c4a36d" stroke-width="1" opacity=".8"/><rect x="88" y="56" width="1024" height="708" filter="url(#grain)" opacity=".6"/><g><rect x="18" y="42" width="92" height="736" rx="40" fill="url(#roll)" stroke="#573015" stroke-width="5"/><ellipse cx="64" cy="58" rx="50" ry="24" fill="url(#roll)" stroke="#573015" stroke-width="5"/><ellipse cx="64" cy="762" rx="50" ry="24" fill="url(#roll)" stroke="#573015" stroke-width="5"/><rect x="1090" y="42" width="92" height="736" rx="40" fill="url(#roll)" stroke="#573015" stroke-width="5"/><ellipse cx="1136" cy="58" rx="50" ry="24" fill="url(#roll)" stroke="#573015" stroke-width="5"/><ellipse cx="1136" cy="762" rx="50" ry="24" fill="url(#roll)" stroke="#573015" stroke-width="5"/></g><g fill="url(#gold)" stroke="#69400e" stroke-width="3"><path d="M64 24 78 46 64 68 50 46Z"/><path d="M1136 24 1150 46 1136 68 1122 46Z"/><path d="M600 26 618 50 646 55 622 72 616 101 600 82 584 101 578 72 554 55 582 50Z"/><path d="M600 794 618 770 646 765 622 748 616 719 600 738 584 719 578 748 554 765 582 770Z"/></g><g fill="none" stroke="#8f6330" stroke-width="4"><path d="M130 132c36-36 70-36 104 0M130 688c36 36 70 36 104 0M1070 132c-36-36-70-36-104 0M1070 688c-36 36-70 36-104 0"/></g></g></svg>